<mxfile host="app.diagrams.net" agent="Mozilla/5.0 (Macintosh; Intel Mac OS X 10_15_7) AppleWebKit/605.1.15 (KHTML, like Gecko) Version/18.4 Safari/605.1.15" version="26.2.13">
  <diagram name="Page-1" id="9361dd3d-8414-5efd-6122-117bd74ce7a7">
    <mxGraphModel dx="1138" dy="1110" grid="1" gridSize="10" guides="1" tooltips="1" connect="1" arrows="1" fold="1" page="0" pageScale="1.5" pageWidth="826" pageHeight="1169" background="none" math="0" shadow="0">
      <root>
        <mxCell id="0" />
        <mxCell id="1" parent="0" />
        <mxCell id="2" value="" style="fillColor=#CC4125;strokeColor=#660000" parent="1" vertex="1">
          <mxGeometry x="200" y="150" width="10" height="170" as="geometry" />
        </mxCell>
        <mxCell id="3" value="I have excess cash" style="edgeStyle=none;verticalLabelPosition=top;verticalAlign=bottom;labelPosition=left;align=right" parent="1" edge="1">
          <mxGeometry x="110" y="49.5" width="100" height="100" as="geometry">
            <mxPoint x="110" y="149.5" as="sourcePoint" />
            <mxPoint x="200" y="149.5" as="targetPoint" />
          </mxGeometry>
        </mxCell>
        <mxCell id="_aU_bg_VFNlMsZn4Ez4D-104" style="edgeStyle=orthogonalEdgeStyle;rounded=0;orthogonalLoop=1;jettySize=auto;html=1;exitX=0.25;exitY=1;exitDx=0;exitDy=0;entryX=0.25;entryY=1;entryDx=0;entryDy=0;dashed=1;" parent="1" source="6" target="2" edge="1">
          <mxGeometry relative="1" as="geometry">
            <Array as="points">
              <mxPoint x="345" y="350" />
              <mxPoint x="203" y="350" />
            </Array>
          </mxGeometry>
        </mxCell>
        <mxCell id="_aU_bg_VFNlMsZn4Ez4D-105" value="errors" style="edgeLabel;html=1;align=center;verticalAlign=middle;resizable=0;points=[];" parent="_aU_bg_VFNlMsZn4Ez4D-104" vertex="1" connectable="0">
          <mxGeometry x="0.3415" y="3" relative="1" as="geometry">
            <mxPoint as="offset" />
          </mxGeometry>
        </mxCell>
        <mxCell id="_aU_bg_VFNlMsZn4Ez4D-106" value="see web site" style="edgeStyle=orthogonalEdgeStyle;rounded=0;orthogonalLoop=1;jettySize=auto;html=1;exitX=-0.15;exitY=0.943;exitDx=0;exitDy=0;entryX=1;entryY=0.959;entryDx=0;entryDy=0;entryPerimeter=0;dashed=1;exitPerimeter=0;" parent="1" source="6" target="2" edge="1">
          <mxGeometry relative="1" as="geometry">
            <Array as="points">
              <mxPoint x="280" y="312" />
              <mxPoint x="280" y="313" />
            </Array>
            <mxPoint as="offset" />
          </mxGeometry>
        </mxCell>
        <mxCell id="6" value="" style="fillColor=#CC4125;strokeColor=#660000" parent="1" vertex="1">
          <mxGeometry x="342.5" y="180" width="10" height="140" as="geometry" />
        </mxCell>
        <mxCell id="7" value="web browser" style="shadow=1;fillColor=#A2C4C9;strokeColor=none" parent="1" vertex="1">
          <mxGeometry x="295" y="60" width="105" height="50" as="geometry" />
        </mxCell>
        <mxCell id="8" value="" style="edgeStyle=none;endArrow=none;dashed=1" parent="1" source="7" target="6" edge="1">
          <mxGeometry x="272.3350694444445" y="165" width="100" height="100" as="geometry">
            <mxPoint x="347.2588734567901" y="110" as="sourcePoint" />
            <mxPoint x="347.5761959876544" y="165" as="targetPoint" />
          </mxGeometry>
        </mxCell>
        <mxCell id="9" value="visit https://buystuff.com" style="edgeStyle=none;verticalLabelPosition=top;verticalAlign=bottom" parent="1" edge="1">
          <mxGeometry x="220" y="92" width="100" height="100" as="geometry">
            <mxPoint x="210" y="190" as="sourcePoint" />
            <mxPoint x="340" y="190" as="targetPoint" />
          </mxGeometry>
        </mxCell>
        <mxCell id="13" value="request URL https://buystuff.com" style="edgeStyle=none;verticalLabelPosition=top;verticalAlign=bottom;" parent="1" edge="1">
          <mxGeometry x="385.45524691358025" y="113.91550925925924" width="100" height="100" as="geometry">
            <mxPoint x="353" y="199" as="sourcePoint" />
            <mxPoint x="579" y="199" as="targetPoint" />
          </mxGeometry>
        </mxCell>
        <mxCell id="15" value="web server" style="shadow=1;fillColor=#A2C4C9;strokeColor=none" parent="1" vertex="1">
          <mxGeometry x="530.0039506172839" y="59.99999999999997" width="105" height="50" as="geometry" />
        </mxCell>
        <mxCell id="16" value="" style="edgeStyle=none;endArrow=none" parent="1" source="15" target="17" edge="1">
          <mxGeometry x="504.76282407407405" y="270" width="100" height="100" as="geometry">
            <mxPoint x="582.262824074074" y="219.99999999999997" as="sourcePoint" />
            <mxPoint x="582.262824074074" y="239.99999999999997" as="targetPoint" />
          </mxGeometry>
        </mxCell>
        <mxCell id="_aU_bg_VFNlMsZn4Ez4D-99" style="edgeStyle=orthogonalEdgeStyle;rounded=0;orthogonalLoop=1;jettySize=auto;html=1;entryX=1.15;entryY=0.929;entryDx=0;entryDy=0;exitX=0.05;exitY=0.875;exitDx=0;exitDy=0;exitPerimeter=0;entryPerimeter=0;" parent="1" edge="1">
          <mxGeometry relative="1" as="geometry">
            <Array as="points">
              <mxPoint x="577.5" y="299.63" />
            </Array>
            <mxPoint x="577.5" y="301.59624999999994" as="sourcePoint" />
            <mxPoint x="353.5" y="299.68999999999994" as="targetPoint" />
          </mxGeometry>
        </mxCell>
        <mxCell id="_aU_bg_VFNlMsZn4Ez4D-100" value="response: requested URI" style="edgeLabel;html=1;align=center;verticalAlign=middle;resizable=0;points=[];" parent="_aU_bg_VFNlMsZn4Ez4D-99" vertex="1" connectable="0">
          <mxGeometry x="-0.0572" y="1" relative="1" as="geometry">
            <mxPoint x="-10" y="9" as="offset" />
          </mxGeometry>
        </mxCell>
        <mxCell id="_aU_bg_VFNlMsZn4Ez4D-102" style="edgeStyle=orthogonalEdgeStyle;rounded=0;orthogonalLoop=1;jettySize=auto;html=1;exitX=0;exitY=1;exitDx=0;exitDy=0;entryX=0.75;entryY=1;entryDx=0;entryDy=0;dashed=1;" parent="1" source="17" target="6" edge="1">
          <mxGeometry relative="1" as="geometry" />
        </mxCell>
        <mxCell id="_aU_bg_VFNlMsZn4Ez4D-103" value="errors" style="edgeLabel;html=1;align=center;verticalAlign=middle;resizable=0;points=[];" parent="_aU_bg_VFNlMsZn4Ez4D-102" vertex="1" connectable="0">
          <mxGeometry x="0.0063" y="-1" relative="1" as="geometry">
            <mxPoint as="offset" />
          </mxGeometry>
        </mxCell>
        <mxCell id="17" value="" style="fillColor=#CC4125;strokeColor=#660000" parent="1" vertex="1">
          <mxGeometry x="577.5" y="190" width="10" height="139.39" as="geometry" />
        </mxCell>
        <mxCell id="_aU_bg_VFNlMsZn4Ez4D-97" value="response: requested URI" style="edgeStyle=orthogonalEdgeStyle;rounded=0;orthogonalLoop=1;jettySize=auto;html=1;exitX=0;exitY=0.25;exitDx=0;exitDy=0;entryX=0.15;entryY=0.703;entryDx=0;entryDy=0;entryPerimeter=0;" parent="1" source="21" target="17" edge="1">
          <mxGeometry relative="1" as="geometry">
            <mxPoint x="590" y="289" as="targetPoint" />
          </mxGeometry>
        </mxCell>
        <mxCell id="21" value="" style="fillColor=#CC4125;strokeColor=#660000" parent="1" vertex="1">
          <mxGeometry x="855" y="260" width="10" height="89.39" as="geometry" />
        </mxCell>
        <mxCell id="22" value="web application" style="shadow=1;fillColor=#A2C4C9;strokeColor=none" parent="1" vertex="1">
          <mxGeometry x="807.5" y="60" width="105" height="50" as="geometry" />
        </mxCell>
        <mxCell id="23" value="" style="edgeStyle=none;endArrow=none;dashed=1" parent="1" source="22" target="21" edge="1">
          <mxGeometry x="731.9878472222224" y="174.99999999999997" width="100" height="100" as="geometry">
            <mxPoint x="792.1527777777778" y="110" as="sourcePoint" />
            <mxPoint x="792.1527777777778" y="260" as="targetPoint" />
          </mxGeometry>
        </mxCell>
        <mxCell id="27" value="request URI bust.com from application" style="edgeStyle=elbowEdgeStyle;elbow=vertical;verticalLabelPosition=top;verticalAlign=bottom" parent="1" source="17" target="21" edge="1">
          <mxGeometry width="100" height="100" as="geometry">
            <mxPoint x="540" y="370" as="sourcePoint" />
            <mxPoint x="640" y="270" as="targetPoint" />
            <Array as="points">
              <mxPoint x="590" y="270" />
            </Array>
            <mxPoint x="13" y="10" as="offset" />
          </mxGeometry>
        </mxCell>
        <mxCell id="28" value="" style="edgeStyle=elbowEdgeStyle;elbow=vertical;dashed=1;verticalLabelPosition=bottom;verticalAlign=top;html=1;" parent="1" source="21" target="17" edge="1">
          <mxGeometry width="100" height="100" as="geometry">
            <mxPoint x="529.7839506172838" y="280" as="sourcePoint" />
            <mxPoint x="680" y="280" as="targetPoint" />
            <Array as="points">
              <mxPoint x="593" y="348" />
            </Array>
            <mxPoint x="5" y="1" as="offset" />
          </mxGeometry>
        </mxCell>
        <mxCell id="alX6jOgoG5NHsNxsaUF8-75" value="errors" style="edgeLabel;html=1;align=center;verticalAlign=middle;resizable=0;points=[];" parent="28" vertex="1" connectable="0">
          <mxGeometry relative="1" as="geometry">
            <mxPoint x="43" y="-1" as="offset" />
          </mxGeometry>
        </mxCell>
        <mxCell id="33" value="" style="edgeStyle=elbowEdgeStyle;elbow=horizontal;endArrow=none;dashed=1" parent="1" target="2" edge="1">
          <mxGeometry x="230.00000000000003" y="310" width="100" height="100" as="geometry">
            <mxPoint x="205" y="110" as="sourcePoint" />
            <mxPoint x="330" y="310" as="targetPoint" />
          </mxGeometry>
        </mxCell>
        <mxCell id="71" value="basic web browsing" style="rounded=1;fontStyle=1;fillColor=#FFD966;strokeColor=none" parent="1" vertex="1">
          <mxGeometry x="50" y="20" width="150" height="30" as="geometry" />
        </mxCell>
        <mxCell id="_aU_bg_VFNlMsZn4Ez4D-89" value="John" style="shape=umlActor;verticalLabelPosition=bottom;verticalAlign=top;html=1;outlineConnect=0;" parent="1" vertex="1">
          <mxGeometry x="190" y="60" width="30" height="60" as="geometry" />
        </mxCell>
        <mxCell id="_aU_bg_VFNlMsZn4Ez4D-91" value="URL: Uniform Resource Locator" style="shape=note;whiteSpace=wrap;html=1;backgroundOutline=1;darkOpacity=0.05;size=7;" parent="1" vertex="1">
          <mxGeometry x="440" y="130" width="116.04" height="40" as="geometry" />
        </mxCell>
        <mxCell id="_aU_bg_VFNlMsZn4Ez4D-96" value="Communication language between web browser and web server: HTTP" style="shape=note;whiteSpace=wrap;html=1;backgroundOutline=1;darkOpacity=0.05;" parent="1" vertex="1">
          <mxGeometry x="406.04" y="210" width="150" height="80" as="geometry" />
        </mxCell>
        <mxCell id="_aU_bg_VFNlMsZn4Ez4D-108" style="edgeStyle=orthogonalEdgeStyle;rounded=0;orthogonalLoop=1;jettySize=auto;html=1;dashed=1;" parent="1" source="_aU_bg_VFNlMsZn4Ez4D-107" edge="1">
          <mxGeometry relative="1" as="geometry">
            <mxPoint x="640" y="290" as="targetPoint" />
          </mxGeometry>
        </mxCell>
        <mxCell id="_aU_bg_VFNlMsZn4Ez4D-107" value="data:&lt;br&gt;HTML&lt;br&gt;JSON&lt;br&gt;..." style="shape=note;whiteSpace=wrap;html=1;backgroundOutline=1;darkOpacity=0.05;" parent="1" vertex="1">
          <mxGeometry x="577.5" y="390" width="122.5" height="70" as="geometry" />
        </mxCell>
        <mxCell id="_aU_bg_VFNlMsZn4Ez4D-110" style="edgeStyle=orthogonalEdgeStyle;rounded=0;orthogonalLoop=1;jettySize=auto;html=1;dashed=1;" parent="1" target="15" edge="1">
          <mxGeometry relative="1" as="geometry">
            <mxPoint x="590" y="30" as="sourcePoint" />
            <Array as="points">
              <mxPoint x="590" y="20" />
              <mxPoint x="583" y="20" />
            </Array>
          </mxGeometry>
        </mxCell>
        <mxCell id="_aU_bg_VFNlMsZn4Ez4D-109" value="This is a computer program running on the a machine often also called a server" style="shape=note;whiteSpace=wrap;html=1;backgroundOutline=1;darkOpacity=0.05;" parent="1" vertex="1">
          <mxGeometry x="530" y="-50" width="103" height="80" as="geometry" />
        </mxCell>
      </root>
    </mxGraphModel>
  </diagram>
</mxfile>
